<svg aria-hidden="true" style="position: absolute; width: 0; height: 0; overflow: hidden;" version="1.1"
	xmlns="http://www.w3.org/2000/svg" xmlns:xlink="http://www.w3.org/1999/xlink">

	<defs>
		<symbol fill="none" xmlns="http://www.w3.org/2000/svg" id="like-icon">
			<path d="M17.4236 3.61313C16.5101 2.61085 15.2566 2.05884 13.8939 2.05884C12.8752 2.05884 11.9423 2.38463 11.121 3.02707C10.7066 3.35136 10.3311 3.7481 10 4.21118C9.6691 3.74824 9.29346 3.35136 8.87893 3.02707C8.05781 2.38463 7.12487 2.05884 6.10622 2.05884C4.74344 2.05884 3.48984 2.61085 2.57633 3.61313C1.67373 4.6037 1.17651 5.95697 1.17651 7.42384C1.17651 8.9336 1.7327 10.3156 2.92678 11.7732C3.99499 13.077 5.53025 14.4006 7.3081 15.9332C7.91522 16.4566 8.60334 17.0499 9.31787 17.6819C9.50657 17.8491 9.74881 17.9412 10 17.9412C10.2512 17.9412 10.4935 17.8491 10.682 17.6821C11.3965 17.0501 12.085 16.4565 12.6924 15.9328C14.47 14.4004 16.0052 13.077 17.0735 11.773C18.2675 10.3156 18.8236 8.9336 18.8236 7.42366C18.8236 5.95697 18.3263 4.6037 17.4236 3.61313Z" 
				stroke-width="1.76471"
			/>
		</symbol>
		<symbol fill="none" xmlns="http://www.w3.org/2000/svg" id="search-icon">
			<g clip-path="url(#clip0_8_452)">
				<path d="M7.89472 14.7369C11.6735 14.7369 14.7368 11.6735 14.7368 7.89475C14.7368 4.11596 11.6735 1.05264 7.89472 1.05264C4.11593 1.05264 1.05261 4.11596 1.05261 7.89475C1.05261 11.6735 4.11593 14.7369 7.89472 14.7369Z" stroke-width="2.10526"/>
				<path d="M13.6842 13.6842L17.8947 17.8947" stroke-width="2.10526" stroke-linecap="square"/>
			</g>
				<defs>
					<clipPath id="clip0_8_452">
						<rect width="20" height="20" />
					</clipPath>
				</defs>
		</symbol>
		<symbol fill="none" xmlns="http://www.w3.org/2000/svg" id="basket-icon">
			<g>
				<path fill-rule="evenodd" clip-rule="evenodd" d="M7.09448 10.9914H14.5387C15.2881 10.9914 15.9426 10.5768 16.2872 9.96229L19.8595 3.47729C19.9394 3.33738 19.9844 3.1725 19.9844 2.99766C19.9844 2.4431 19.5348 1.99846 18.9852 1.99846H4.21171L3.26244 0H0V1.99846H1.99846L5.59063 9.57752L4.24169 12.0256C4.08679 12.3154 3.99686 12.6401 3.99686 12.9899C3.99686 14.094 4.89119 14.9883 5.99531 14.9883H17.9859V12.9898H6.42C6.2801 12.9898 6.17021 12.8799 6.17021 12.74C6.17021 12.695 6.18019 12.6551 6.20019 12.6201L7.09448 10.9914ZM5.99531 15.9875C4.89119 15.9875 4.00689 16.8818 4.00689 17.9859C4.00689 19.0901 4.89119 19.9844 5.99531 19.9844C7.09944 19.9844 7.99377 19.0901 7.99377 17.9859C7.99377 16.8818 7.09944 15.9875 5.99531 15.9875ZM13.999 17.9859C13.999 16.8818 14.8833 15.9875 15.9875 15.9875C17.0916 15.9875 17.9859 16.8818 17.9859 17.9859C17.9859 19.0901 17.0916 19.9844 15.9875 19.9844C14.8833 19.9844 13.999 19.0901 13.999 17.9859Z" />
			</g>
			<defs>
				<clipPath id="clip0_8_456">
					<rect width="20" height="20" />
				</clipPath>
			</defs>
		</symbol>
		<symbol fill="none" xmlns="http://www.w3.org/2000/svg" id="user-icon">
			<g>
				<path fill-rule="evenodd" clip-rule="evenodd" d="M4.16663 19V18.8333C4.16663 15.3355 7.00215 12.5 10.5 12.5C13.9978 12.5 16.8333 15.3355 16.8333 18.8333V19H4.16663Z" stroke-width="2.66667"/>
				<path d="M10.1666 8.33332C12.0075 8.33332 13.4999 6.84094 13.4999 4.99999C13.4999 3.15904 12.0075 1.66666 10.1666 1.66666C8.32564 1.66666 6.83325 3.15904 6.83325 4.99999C6.83325 6.84094 8.32564 8.33332 10.1666 8.33332Z" stroke-width="2.66667"/>
			</g>
			<defs>
				<clipPath id="clip0_8_460">
					<rect width="20" height="20" />
				</clipPath>
			</defs>
		</symbol>
		<symbol  
			width='30'
            height='30'
            viewBox='0 0 20 20' xmlns="http://www.w3.org/2000/svg" id="menu-icon">
            <path
			  border="none"
              fillRule='evenodd'
              d='M18 5a1 1 0 1 0 0-2H2a1 1 0 0 0 0 2h16zm0 4a1 1 0 1 0 0-2h-8a1 1 0 1 0 0 2h8zm1 3a1 1 0 0 1-1 1H2a1 1 0 1 1 0-2h16a1 1 0 0 1 1 1zm-1 5a1 1 0 1 0 0-2h-8a1 1 0 1 0 0 2h8z'
            />
		  </symbol>
		  	<symbol viewBox='0 0 20 20' aria-hidden='true' fill='currentColor' xmlns="http://www.w3.org/2000/svg" id="Ñlose-icon">
			 <path
              fillRule='evenodd'
              d='M4.293 4.293a1 1 0 011.414 0L10 8.586l4.293-4.293a1 1 0 111.414 1.414L11.414 10l4.293 4.293a1 1 0 01-1.414 1.414L10 11.414l-4.293 4.293a1 1 0 01-1.414-1.414L8.586 10 4.293 5.707a1 1 0 010-1.414z'
              clipRule='evenodd'
			  stroke="none"
            ></path>
		</symbol>
		  	<symbol
				aria-hidden='true'  
				xmlns="http://www.w3.org/2000/svg" 
				id="service-charity-icon"
				>
              <path d='m1.5 1 30.857 10.417V94.75l46.286-17.361-15.429-6.945L55.5 42.667l54 17.36v31.25L32.357 126 1.5 112.111V1Z' />
		</symbol>
		  	<symbol
				aria-hidden='true'  
				xmlns="http://www.w3.org/2000/svg" 
				id="package-icon"
				>
                    <path d='M10 .5a9.5 9.5 0 1 0 9.5 9.5A9.51 9.51 0 0 0 10 .5Zm3.707 8.207-4 4a1 1 0 0 1-1.414 0l-2-2a1 1 0 0 1 1.414-1.414L9 10.586l3.293-3.293a1 1 0 0 1 1.414 1.414Z' />
		</symbol>
		  	<symbol
				aria-hidden='true'  
				xmlns="http://www.w3.org/2000/svg" 
				id="united-state-icon"
				  viewBox='0 0 25 25'
				>
                  <path
                    strokeLinecap='round'
                    strokeLinejoin='round'
                    d='M12.75 3.03v.568c0 .334.148.65.405.864l1.068.89c.442.369.535 1.01.216 1.49l-.51.766a2.25 2.25 0 01-1.161.886l-.143.048a1.107 1.107 0 00-.57 1.664c.369.555.169 1.307-.427 1.605L9 13.125l.423 1.059a.956.956 0 01-1.652.928l-.679-.906a1.125 1.125 0 00-1.906.172L4.5 15.75l-.612.153M12.75 3.031a9 9 0 00-8.862 12.872M12.75 3.031a9 9 0 016.69 14.036m0 0l-.177-.529A2.25 2.25 0 0017.128 15H16.5l-.324-.324a1.453 1.453 0 00-2.328.377l-.036.073a1.586 1.586 0 01-.982.816l-.99.282c-.55.157-.894.702-.8 1.267l.073.438c.08.474.49.821.97.821.846 0 1.598.542 1.865 1.345l.215.643m5.276-3.67a9.012 9.012 0 01-5.276 3.67m0 0a9 9 0 01-10.275-4.835M15.75 9c0 .896-.393 1.7-1.016 2.25'
                  />
				  </symbol>
		  	<symbol
				aria-hidden='true'  
				xmlns="http://www.w3.org/2000/svg" 
				id="location-icon"
				 viewBox='0 0 25 25'
				>
                <path
                    strokeLinecap='round'
                    strokeLinejoin='round'
                    d='M15 10.5a3 3 0 11-6 0 3 3 0 016 0z'
                  />
                  <path
                    strokeLinecap='round'
                    strokeLinejoin='round'
                    d='M19.5 10.5c0 7.142-7.5 11.25-7.5 11.25S4.5 17.642 4.5 10.5a7.5 7.5 0 1115 0z'
                  />
				  </symbol>
		  	<symbol
				aria-hidden='true'  
				xmlns="http://www.w3.org/2000/svg" 
				id="phone-icon"
				 viewBox='0 0 25 25'
				>
                <path
                    strokeLinecap='round'
                    strokeLinejoin='round'
                    d='M2.25 6.75c0 8.284 6.716 15 15 15h2.25a2.25 2.25 0 002.25-2.25v-1.372c0-.516-.351-.966-.852-1.091l-4.423-1.106c-.44-.11-.902.055-1.173.417l-.97 1.293c-.282.376-.769.542-1.21.38a12.035 12.035 0 01-7.143-7.143c-.162-.441.004-.928.38-1.21l1.293-.97c.363-.271.527-.734.417-1.173L6.963 3.102a1.125 1.125 0 00-1.091-.852H4.5A2.25 2.25 0 002.25 4.5v2.25z'
                  />
				  </symbol>
		  	<symbol
				aria-hidden='true'  
				xmlns="http://www.w3.org/2000/svg" 
				id="price-icon"
				 viewBox='0 0 25 25'
				>
                   <path
                    strokeLinecap='round'
                    strokeLinejoin='round'
                    d='M2.25 18.75a60.07 60.07 0 0115.797 2.101c.727.198 1.453-.342 1.453-1.096V18.75M3.75 4.5v.75A.75.75 0 013 6h-.75m0 0v-.375c0-.621.504-1.125 1.125-1.125H20.25M2.25 6v9m18-10.5v.75c0 .414.336.75.75.75h.75m-1.5-1.5h.375c.621 0 1.125.504 1.125 1.125v9.75c0 .621-.504 1.125-1.125 1.125h-.375m1.5-1.5H21a.75.75 0 00-.75.75v.75m0 0H3.75m0 0h-.375a1.125 1.125 0 01-1.125-1.125V15m1.5 1.5v-.75A.75.75 0 003 15h-.75M15 10.5a3 3 0 11-6 0 3 3 0 016 0zm3 0h.008v.008H18V10.5zm-12 0h.008v.008H6V10.5z'
                  />
				  </symbol>
		  			<symbol
					 	aria-hidden='true'
					xmlns="http://www.w3.org/2000/svg" 
                    viewBox='0 0 8 16'
					id="fb-icon"
                  >
                    <path d='M7.43902 6.4H6.19918H5.75639V5.88387V4.28387V3.76774H6.19918H7.12906C7.3726 3.76774 7.57186 3.56129 7.57186 3.25161V0.516129C7.57186 0.232258 7.39474 0 7.12906 0H5.51285C3.76379 0 2.54609 1.44516 2.54609 3.5871V5.83226V6.34839H2.10329H0.597778C0.287819 6.34839 0 6.63226 0 7.04516V8.90323C0 9.26452 0.243539 9.6 0.597778 9.6H2.05902H2.50181V10.1161V15.3032C2.50181 15.6645 2.74535 16 3.09959 16H5.18075C5.31359 16 5.42429 15.9226 5.51285 15.8194C5.60141 15.7161 5.66783 15.5355 5.66783 15.3806V10.1419V9.62581H6.13276H7.12906C7.41688 9.62581 7.63828 9.41935 7.68256 9.10968V9.08387V9.05806L7.99252 7.27742C8.01466 7.09677 7.99252 6.89032 7.85968 6.68387C7.8154 6.55484 7.61614 6.42581 7.43902 6.4Z' />
                  </symbol>
				      <symbol
                    viewBox='0 0 16 12'
					id="tw-icon"
					aria-hidden='true'
                  >
                    <path d='M14.2194 2.06654L15.2 0.939335C15.4839 0.634051 15.5613 0.399217 15.5871 0.2818C14.8129 0.704501 14.0903 0.845401 13.6258 0.845401H13.4452L13.3419 0.751468C12.7226 0.258317 11.9484 0 11.1226 0C9.31613 0 7.89677 1.36204 7.89677 2.93542C7.89677 3.02935 7.89677 3.17025 7.92258 3.26419L8 3.73386L7.45806 3.71037C4.15484 3.61644 1.44516 1.03327 1.00645 0.587084C0.283871 1.76125 0.696774 2.88845 1.13548 3.59296L2.0129 4.90802L0.619355 4.20352C0.645161 5.18982 1.05806 5.96477 1.85806 6.52838L2.55484 6.99804L1.85806 7.25636C2.29677 8.45401 3.27742 8.94716 4 9.13503L4.95484 9.36986L4.05161 9.93346C2.60645 10.8728 0.8 10.8024 0 10.7319C1.62581 11.7652 3.56129 12 4.90323 12C5.90968 12 6.65806 11.9061 6.83871 11.8356C14.0645 10.2857 14.4 4.41487 14.4 3.2407V3.07632L14.5548 2.98239C15.4323 2.23092 15.7935 1.8317 16 1.59687C15.9226 1.62035 15.8194 1.66732 15.7161 1.6908L14.2194 2.06654Z' />
                  </symbol>
   	 				<symbol
                    viewBox='0 0 16 12'
                    id="yt-icon"
					aria-hidden='true'
                  >
                    <path d='M15.6645 1.88018C15.4839 1.13364 14.9419 0.552995 14.2452 0.359447C13.0065 6.59222e-08 8 0 8 0C8 0 2.99355 6.59222e-08 1.75484 0.359447C1.05806 0.552995 0.516129 1.13364 0.335484 1.88018C0 3.23502 0 6 0 6C0 6 0 8.79263 0.335484 10.1198C0.516129 10.8664 1.05806 11.447 1.75484 11.6406C2.99355 12 8 12 8 12C8 12 13.0065 12 14.2452 11.6406C14.9419 11.447 15.4839 10.8664 15.6645 10.1198C16 8.79263 16 6 16 6C16 6 16 3.23502 15.6645 1.88018ZM6.4 8.57143V3.42857L10.5548 6L6.4 8.57143Z' />
                  </symbol>
  					<symbol
                    viewBox='0 0 14 14'
					 id="ln-icon"
                    aria-hidden='true'
                  >
                    <path d='M13.0214 0H1.02084C0.453707 0 0 0.451613 0 1.01613V12.9839C0 13.5258 0.453707 14 1.02084 14H12.976C13.5432 14 13.9969 13.5484 13.9969 12.9839V0.993548C14.0422 0.451613 13.5885 0 13.0214 0ZM4.15142 11.9H2.08705V5.23871H4.15142V11.9ZM3.10789 4.3129C2.42733 4.3129 1.90557 3.77097 1.90557 3.11613C1.90557 2.46129 2.45002 1.91935 3.10789 1.91935C3.76577 1.91935 4.31022 2.46129 4.31022 3.11613C4.31022 3.77097 3.81114 4.3129 3.10789 4.3129ZM11.9779 11.9H9.9135V8.67097C9.9135 7.90323 9.89082 6.8871 8.82461 6.8871C7.73571 6.8871 7.57691 7.74516 7.57691 8.60323V11.9H5.51254V5.23871H7.53154V6.16452H7.55423C7.84914 5.62258 8.50701 5.08065 9.52785 5.08065C11.6376 5.08065 12.0232 6.43548 12.0232 8.2871V11.9H11.9779Z' />
                  </symbol>
			</defs>
</svg>